<?xml version="1.0" encoding="utf-8"?>
<!-- Generator: Adobe Illustrator 19.0.0, SVG Export Plug-In . SVG Version: 6.00 Build 0)  -->
<svg version="1.1" id="圖層_1" xmlns="http://www.w3.org/2000/svg" xmlns:xlink="http://www.w3.org/1999/xlink" x="0px" y="0px"
	 viewBox="-263 328.6 68 184.3" style="enable-background:new -263 328.6 68 184.3;" xml:space="preserve">
<style type="text/css">
	.st0{fill:#FFFFFF;}
</style>
<g id="XMLID_10_">
	<path id="XMLID_17_" class="st0" d="M-223.3,467.4c1.2-4.1,0.9-8.2,1-11.8c0-1.6,0.2-2.6,0-3.6c-0.6-2.9,1.5-8.2-1.9-8.1
		c-4.2,0.1-1.3,5.1-1.7,7.9c-0.2,1-0.1,2-0.2,3c-0.2,1.3-1,2-2.2,2.4c-6.2,2-9.1-0.1-9-6.6c0-1.3,0.2-2.7,0.1-4
		c-0.1-1.2-0.2-2.4-1.9-2.3c-1.3,0.1-1.7,1.1-1.7,2.1c-0.5,7.5-0.6,15,1.8,22.2c1.3,3.8,4.7,4.8,8.5,4.7
		C-226.6,473-224.4,471-223.3,467.4z M-231.5,469.2c-3.3,0-5.3-1.5-5.5-5c-0.3-3.6,2.3-3.4,4.9-3.5c2.2,0.5,5.8-0.8,5.7,3.9
		C-226.4,468.1-228.4,469.2-231.5,469.2z"/>
	<path id="XMLID_14_" class="st0" d="M-210.9,481.9c-0.7-2.6,1-7.4-1.8-7.3c-4.2,0.2-1.8,4.7-1.7,7.4c0.3,5.8-0.3,6.5-5.8,6.3
		c-3.2-0.1-4.6-1.4-4.3-4.6c0.2-2,0.2-4,0.2-6c0-1.3,0.1-2.9-1.8-2.9c-1.4,0-1.9,1.2-1.9,2.5c-0.1,6.7-0.3,13.3,1.6,19.8
		c1.2,4.3,4.6,5.2,8.6,5.1c4-0.1,5.7-2.6,6.2-6c0.6-3.6,0.7-7.3,0.9-10.9C-210.7,485.4-210.6,483-210.9,481.9z M-218.7,498.3
		c-2.6,0-5.1-0.6-5.4-3.8c-0.3-3.3,2.3-2.9,4.4-3c2.3,0,4.9-0.3,5.1,3C-214.4,497.4-216.3,498.3-218.7,498.3z"/>
	<path id="XMLID_11_" class="st0" d="M-235.1,475c-1.2,0.1-1.8,1-1.8,2c0,1.8,0.2,3.6,0.4,5.5c0.4,3.7,0,6.4-5,6.5
		c-4.9,0.1-5.5-2.5-5.3-6.3c0.1-1.5,0.2-3,0.3-4.5c0-1.2-0.1-2.6-1.5-2.7c-1.3-0.1-2.2,1-2.2,2.2c-0.2,7-0.8,14,1.5,20.7
		c1.3,3.8,4.6,4.5,8.1,4.4c3.4-0.1,5.4-1.9,6.4-5.2c1.1-3.9,1-7.9,1.4-11.9c-0.2-3-0.3-6-0.5-8.9C-233.4,475.9-233.9,475-235.1,475z
		 M-241.6,499.4c-2.8,0-4.8-0.9-4.9-4.2c-0.1-3.5,2.4-2.8,4.2-3c2.6,0,5.2-0.6,5.2,3.1C-237.1,498.4-238.9,499.4-241.6,499.4z"/>
</g>
<g id="XMLID_2_">
	<path id="XMLID_6_" class="st0" d="M-217.4,358.7c-1.8-0.3-3.5-0.2-5.3-0.3c-1,0-2-0.1-3-0.2c-0.6-0.1-1.1-0.2-1.6-0.3
		c-0.4-0.1-1.1-0.1-1.2-0.6c0-0.1,0-0.4,0.1-0.4c0.1-0.2,0.4-0.3,0.7-0.3c0.5-0.1,1-0.1,1.5-0.2c0.7-0.1,1.4-0.1,2.2-0.1
		c1.3,0,2.5,0.1,3.8,0c1.2-0.1,2.6-0.3,2.7-1.6c0.2-1.7-1.5-1.5-2.5-1.6c-1.4-0.2-2.8-0.3-4.2-0.4c-0.8-0.1-1.7-0.1-2.5-0.2
		c-0.4,0-1,0-1.4-0.1c-0.3-0.1-0.5-0.4-0.3-0.7c0.2-0.2,0.6-0.3,0.8-0.4c0.4-0.2,0.8-0.4,1.2-0.5c0.7-0.3,1.5-0.7,2.2-1
		c1.3-0.6,2.5-1.2,3.8-1.8c1-0.5,1.5-1.4,0.9-2.5c-0.6-0.9-1.5-0.5-2.2-0.1c-0.9,0.5-1.7,1.1-2.5,1.6c-2.5,1.3-5.3,3.2-4.6-2.2
		c0.1-0.9-0.4-2.1-1.6-2.2c-1.3,0-1.3,1.3-1.6,2.1c-0.6,1.3,0.7,4-2.1,3.5c-1.5-0.2-3.2-0.6-4.1-1.9c-0.5-0.7-0.7-1.5-1.2-2.2
		c-0.3-0.4-0.8-0.8-1.5-0.8c-0.9-0.1-1.5,0.2-1.9,1.1c-0.6,1.5,4.2,5.3,5.7,5.9c0.7,0.3,1.5,0.6,2.2,0.9c0.8,0.3,1.6,0.6,2.4,0.9
		c0,0.2,0,0.3,0,0.5c0,0.3-0.5,0.3-0.8,0.3c-0.4,0.1-0.7,0.1-1.1,0.2c-0.8,0.1-1.6,0.2-2.4,0.3c-1.6,0.2-3.2,0.3-4.8,0.4
		c-1.4-0.1-3.6-0.7-3.7,1.3c-0.1,2.3,2.2,2,3.8,1.8c1.5-0.1,3-0.3,4.5-0.5c0.8-0.1,1.6-0.1,2.3-0.1c0.4,0,0.8,0,1.3,0
		c0.4,0,0.8,0,0.8,0.4c0,0.4,0,1-0.2,1.3c-0.3,0.3-1,0.5-1.3,0.6c-0.9,0.5-1.8,0.5-2.8,0.6c-2.7,0.1-5.3,0.1-8,0.2
		c-1.2,0-2.6,0.1-2.5,1.7c0.1,1.7,1.6,1.3,2.7,1.4c6.5,0.4,6.5,0.4,6.3,6.9c-0.1,2.3-0.2,4.7-0.5,7c-0.7,5.1-1.6,10.2-2.2,15.3
		c-0.2,1.5-1.3,4.1,0.5,4.3c2.4,0.3,1.9-2.5,2.2-4.1c0.5-2.6,0.7-5.3,1-7.9c0.5-6.5,4-6,8.3-6.3c4.5-0.3,6.4,1.7,6.8,5.9
		c0.4,3.8,1,7.6,1.6,11.4c0.1,0.8,0.4,1.7,1.5,1.6c1.1-0.1,1.1-1.1,1.1-1.9c-0.1-1.5-0.4-3-0.6-4.4c-1.4-8-2.3-16.1-2.6-24.3
		c-0.1-2.9,0.6-4.6,3.9-3.9c1.4,0.3,3.6,0.9,3.8-1C-213.5,358.5-215.9,358.9-217.4,358.7z M-232.5,361.4c0.8,0,1.6,0,2.5,0
		c0,0,2,0,3,0.1c1.4,0.2,2.8,0.6,2.6,2.3c-0.1,1.7-1.6,1.3-2.7,1.2c-1.8,0-3.6,0-5.4-0.3c-1.2-0.2-3.1,0.3-3-1.7
		C-235.4,361.4-233.8,361.4-232.5,361.4z M-230.2,375.2c-1.9-0.3-5.3,1.2-5.4-3.4c-0.1-4.7,3-4.3,6-4.1c2.5,0.1,5.5-0.8,5.5,3.6
		C-224.1,375.9-227.3,375-230.2,375.2z"/>
	<g id="XMLID_3_">
		<path id="XMLID_5_" class="st0" d="M-227.2,340.2c0.8,0.4,2,0.6,2.6,1.2c0.5,0.5,0.5,1.3,1.3,1.6c0.1,0,0.2,0.1,0.4,0.1
			c1,0.1,1.2-0.9,1.7-1.6c0.7-0.9,2-1.3,3-2c1-0.8,2.6-1.9,3-3.2c0.4-1.3,2.6-3.1,0.1-4.2c-2.3-1-2.5,1.2-2.9,2.8
			c-0.3,1.1-0.7,2.6-2.1,2.4c-2-0.2-1.2-1.9-1.3-3.1c0-1.5,0.9-3.9-1.6-3.9c-2.4,0.1-1.3,2.5-1.5,4c-0.1,1.2,0.8,3-1.2,3.2
			c-1.5,0.1-2.1-1.3-2.2-2.8c-0.1-1.3-0.6-2.5-2.1-1.9c-1.4,0.5-1.1,1.9-1,3C-230.8,337.9-228.8,339.3-227.2,340.2z"/>
		<path id="XMLID_4_" class="st0" d="M-244,340.2c0.8,0.1,1.5,0.4,2.1,0.9c0.6,0.6,1,2.7,2.1,1.9c0.5-0.3,0.8-1.1,1.2-1.5
			c0.6-0.5,1.4-0.9,2.2-1.1c2.1-0.6,2.5-2.4,3.1-4.1c0.4-1.4,0.5-2.9-1.1-3.3c-1.7-0.5-2.2,0.9-2.5,2.3c-0.2,1,0.2,2.4-1.4,2.8
			c-1-1.8-0.3-3.6-0.4-5.3c-0.1-1,0-2.1-1.4-2.3c-1.7-0.2-1.7,1.1-1.8,2.3c-0.2,1.8,0.6,3.7-0.4,5.3c-1.3-0.2-1.4-0.9-1.6-1.5
			c-0.4-1.3-0.1-3.7-2.2-2.9c-1.5,0.5-0.7,2.6-0.5,4C-246.4,338.9-245.4,340-244,340.2z"/>
	</g>
</g>
</svg>
